<svg width="307" height="56" viewBox="0 0 307 56" fill="none" xmlns="http://www.w3.org/2000/svg">
<path d="M0 0H150V56H0V0Z" fill="#D32F2F"/>
<path d="M157 0H307V56H157V0Z" fill="black"/>
<path d="M174 43.4383L185.053 25.2344L183.302 31.6047V28.0187L174.021 13H183.07L188.639 23.2937H192.225L187.226 26.3523L194.398 13H203.025L193.322 28.1031V31.6891L191.508 25.3398L202.92 43.4383H194.229L188.323 33.5664H184.737L189.863 30.6133L182.248 43.4383H174Z" fill="white"/>
<path d="M212.013 43.4383V13H225.197C227.658 13 229.746 13.3937 231.462 14.1812C233.178 14.9687 234.485 16.1148 235.385 17.6195C236.285 19.1242 236.735 20.9523 236.735 23.1039V23.1461C236.735 25.1008 236.264 26.8586 235.322 28.4195C234.38 29.9805 233.121 31.1125 231.546 31.8156L237.621 43.4383H228.91L223.699 32.9547C223.657 32.9547 223.601 32.9547 223.531 32.9547C223.474 32.9547 223.411 32.9547 223.341 32.9547H219.755V43.4383H212.013ZM219.755 27.3438H224.332C225.71 27.3438 226.8 26.9641 227.602 26.2047C228.417 25.4312 228.825 24.4047 228.825 23.125V23.0828C228.825 21.8031 228.41 20.7766 227.581 20.0031C226.751 19.2297 225.654 18.843 224.29 18.843H219.755V27.3438Z" fill="white"/>
<path d="M237.633 43.4383L247.885 13H255.014V19.6234H252.546L245.775 43.4383H237.633ZM243.624 36.7727L245.353 31.1828H259.908L261.638 36.7727H243.624ZM259.486 43.4383L252.694 19.6234V13H257.377L267.628 43.4383H259.486Z" fill="white"/>
<path d="M273.61 43.4383V32.9969L263.126 13H271.374L277.407 25.6562H277.575L283.587 13H291.856L281.351 32.9969V43.4383H273.61Z" fill="white"/>
<path d="M30.2289 19.3195L24.4281 30.7102H31.2414L30.3977 19.3195H30.2289ZM32.0641 42.9656L31.5578 36.2789H21.6227L18.1844 42.9656H10L26.9594 12.5273H36.4305L39.932 42.9656H32.0641Z" fill="white"/>
<path d="M54.2665 42.9656H44.7954L41.2938 12.5273H49.7946L50.997 34.9078H51.1446L61.6915 12.5273H70.4454L54.2665 42.9656Z" fill="white"/>
<path d="M83.1978 18.2859C82.0025 18.2859 80.8846 18.5883 79.8439 19.193C78.8033 19.7977 77.8892 20.6414 77.1017 21.7242C76.3142 22.793 75.7025 24.0375 75.2666 25.4578C74.8307 26.8641 74.6127 28.3828 74.6127 30.0141C74.6127 31.4625 74.8517 32.7281 75.3299 33.8109C75.8221 34.8937 76.5111 35.7305 77.3971 36.3211C78.2971 36.9117 79.3517 37.207 80.5611 37.207C81.7564 37.207 82.8744 36.9047 83.915 36.3C84.9697 35.6953 85.8838 34.8586 86.6572 33.7898C87.4447 32.707 88.0564 31.4555 88.4924 30.0352C88.9424 28.6148 89.1674 27.0961 89.1674 25.4789C89.1674 24.0023 88.9213 22.7297 88.4291 21.6609C87.9369 20.5781 87.2408 19.7484 86.3408 19.1719C85.4549 18.5813 84.4072 18.2859 83.1978 18.2859ZM80.3502 43.493C77.5377 43.493 75.1119 42.9305 73.0728 41.8055C71.0338 40.6805 69.4658 39.1406 68.3689 37.1859C67.2861 35.2172 66.7447 32.9742 66.7447 30.457C66.7447 27.743 67.1666 25.2609 68.0103 23.0109C68.8682 20.7469 70.0494 18.7992 71.5541 17.168C73.0728 15.5227 74.8377 14.25 76.8486 13.35C78.8736 12.45 81.0463 12 83.3666 12C86.2494 12 88.7033 12.5695 90.7283 13.7086C92.7674 14.8336 94.3213 16.3734 95.39 18.3281C96.4728 20.2828 97.0142 22.5187 97.0142 25.0359C97.0142 27.7641 96.5853 30.2602 95.7275 32.5242C94.8838 34.7742 93.6955 36.7219 92.1627 38.3672C90.6439 39.9984 88.8721 41.2641 86.8471 42.1641C84.8361 43.05 82.6705 43.493 80.3502 43.493Z" fill="white"/>
<path d="M104.092 42.9656H96.3511L102.827 12.5273H110.568L104.092 42.9656Z" fill="white"/>
<path d="M114.145 12.5273H125.894C128.327 12.5273 130.464 12.9984 132.307 13.9406C134.163 14.8688 135.604 16.2117 136.631 17.9695C137.671 19.7273 138.192 21.8508 138.192 24.3398C138.192 27.068 137.805 29.5641 137.032 31.8281C136.272 34.0922 135.175 36.0609 133.741 37.7344C132.321 39.3937 130.619 40.6805 128.636 41.5945C126.653 42.5086 124.46 42.9656 122.055 42.9656H107.669L114.145 12.5273ZM120.621 18.7289L116.803 36.7641H121C122.35 36.7641 123.588 36.4969 124.713 35.9625C125.838 35.4281 126.808 34.6617 127.624 33.6633C128.453 32.6648 129.093 31.4625 129.543 30.0562C130.007 28.65 130.239 27.068 130.239 25.3102C130.239 23.9461 130 22.7719 129.522 21.7875C129.044 20.8031 128.348 20.0508 127.434 19.5305C126.534 18.9961 125.43 18.7289 124.122 18.7289H120.621Z" fill="white"/>
</svg>
